<svg xmlns="http://www.w3.org/2000/svg" width="857.091" height="839.985"><path d="M788.665 384.185c25.745-146.113 30.308-361.391 0-380.987-30.308-19.573-241.888 53.219-286.124 150.41-24.137-6.412-74.138-9.582-74.138-9.582s-48.343 3.17-72.456 9.583C311.71 56.416 98.475-16.376 68.19 3.197c-30.308 19.597-25.793 234.875 0 380.987 0 0-23.224 47.527-23.224 214.94l384.254-95.27v-20.102l384.253 116.164c0-168.204-24.81-215.731-24.81-215.731" fill="#274756"/><path d="M571.234 438.993c-50.073 0-102.62 11.455-142.006 30.765-39.362-19.31-91.91-30.765-141.981-30.765-238.525 0-242.272 122.48-242.272 160.04 0 37.442 47.239 240.952 383.46 240.952 336.222 0 385.046-202.718 385.046-240.158 0-37.56-3.746-160.834-242.247-160.834" fill="#366472"/><path d="M558.265 169.331c52.114-57.23 160.449-100.194 182.688-94.742 18.06 4.347 15.25 153.365.769 238.646-61.553-102.068-183.457-143.904-183.457-143.904m-258.077 0c-52.066-57.23-160.426-100.194-182.664-94.742-18.084 4.347-15.274 153.365-.744 238.646 61.552-102.068 183.408-143.904 183.408-143.904" fill="#305868"/><g fill="#172b30"><path d="M330.7 722.375c-15.177 0-32.108-1.633-51.081-5.451-12.993-2.594-21.446-15.227-18.83-28.243 2.57-12.992 15.107-21.566 28.268-18.853 96.11 19.165 116.429-30.5 117.245-32.638 4.707-12.2 18.42-18.66 30.692-14.193 12.272 4.468 18.853 17.725 14.649 30.068-1.104 3.266-24.831 69.31-120.942 69.31"/><path d="M526.18 722.375c-96.111 0-119.047-66.308-120.104-69.55-4.131-12.608 2.738-26.178 15.37-30.284 12.56-4.131 25.889 2.618 30.164 14.986 1.057 2.785 21.038 51.32 116.188 32.3 13.137-2.688 25.697 5.86 28.267 18.854 2.618 13.017-5.836 25.649-18.828 28.243-18.948 3.818-35.904 5.45-51.057 5.45"/><path d="M428.897 669.372c-13.281 0-24.017-10.735-24.017-24.016V576.31c0-13.28 10.735-24.016 24.017-24.016 13.28 0 24.016 10.735 24.016 24.016v69.046c0 13.28-10.736 24.016-24.016 24.016"/></g><path d="M525.452 456.23c0-112.705-43.444-312.205-97.023-312.205-53.58 0-97.024 199.5-97.024 312.206 0 112.755 43.445 48.032 97.024 48.032s97.023 64.723 97.023-48.032" fill="#1d353d"/><path d="M524.959 494.46c0 42.22-77.234 95.559-96.543 95.559-19.261 0-96.52-53.34-96.52-95.56 0-42.267 53.892-38.232 96.52-38.232 42.652 0 96.543-4.035 96.543 38.233" fill="#0a1316"/><path d="M356.849 384.16c0 26.537-21.71 48.03-48.512 48.03-26.777 0-48.488-21.493-48.488-48.03 0-26.514 21.71-47.983 48.488-47.983 26.801 0 48.512 21.469 48.512 47.983m240.629.025c0 26.537-21.71 48.03-48.512 48.03-26.778 0-48.488-21.493-48.488-48.03 0-26.514 21.71-47.984 48.488-47.984 26.802-.001 48.512 21.47 48.512 47.984" fill="#9e1600"/><g fill="#172b30"><path d="M813.197 742.85a24.027 24.027 0 0 1-18.036-8.14c-.72-.842-76.394-84.105-250.005-111.05-13.112-2.042-22.094-14.314-20.053-27.402 2.041-13.113 14.337-21.999 27.426-20.054 8.79 1.345 17.363 2.858 25.745 4.467 173.923 33.72 249.74 118.64 253.031 122.385 8.693 9.99 7.661 25.17-2.33 33.887a23.942 23.942 0 0 1-15.778 5.907"/><path d="M548.836 623.943c-9.75 0-18.948-6.004-22.55-15.682-4.588-12.465 1.8-26.273 14.216-30.86 131.535-48.608 292.057-4.539 299.021-2.618 12.776 3.578 20.222 16.787 16.691 29.563-3.53 12.776-16.739 20.222-29.54 16.74-1.537-.434-152.692-41.765-269.506 1.392a24.767 24.767 0 0 1-8.332 1.465M43.894 742.85a24.026 24.026 0 0 0 18.036-8.14c.72-.842 76.395-84.105 250.005-111.05 13.113-2.042 22.095-14.314 20.053-27.402-2.042-13.113-14.337-21.999-27.402-20.054-8.814 1.345-17.388 2.858-25.77 4.467-173.922 33.72-249.74 118.64-253.03 122.385-8.694 9.99-7.661 25.17 2.33 33.887a23.94 23.94 0 0 0 15.778 5.907"/><path d="M308.255 623.943c9.75 0 18.949-6.004 22.55-15.682 4.588-12.465-1.8-26.273-14.216-30.86-131.535-48.608-292.057-4.539-299.021-2.618C4.792 578.361-2.653 591.57.877 604.346c3.53 12.776 16.739 20.222 29.54 16.74 1.537-.434 152.692-41.765 269.505 1.392a24.769 24.769 0 0 0 8.333 1.465"/></g></svg>