<?xml version="1.0" standalone="no"?>
<!DOCTYPE svg PUBLIC "-//W3C//DTD SVG 20010904//EN"
 "http://www.w3.org/TR/2001/REC-SVG-20010904/DTD/svg10.dtd">
<svg version="1.0" xmlns="http://www.w3.org/2000/svg"
 width="857.000000pt" height="857.000000pt" viewBox="0 0 857.000000 857.000000"
 preserveAspectRatio="xMidYMid meet">
<metadata>
Created by potrace 1.11, written by Peter Selinger 2001-2013
</metadata>
<g transform="translate(0.000000,857.000000) scale(0.100000,-0.100000)"
fill="#000000" stroke="none">
<path d="M730 8477 c-47 -16 -61 -26 -91 -67 -28 -39 -71 -145 -62 -154 4 -3
1 -6 -5 -6 -7 0 -11 -3 -10 -7 2 -7 -1 -24 -17 -103 -3 -14 -8 -40 -11 -59 -3
-18 -7 -43 -10 -55 -2 -11 -6 -43 -9 -71 -3 -27 -7 -66 -10 -85 -10 -77 -28
-338 -26 -377 1 -7 1 -21 0 -30 -3 -88 -4 -780 -1 -787 3 -4 6 -63 7 -130 2
-67 6 -155 9 -196 3 -41 8 -124 12 -185 3 -60 7 -126 9 -145 2 -19 7 -69 10
-110 9 -122 14 -172 20 -225 3 -27 7 -77 10 -110 2 -33 4 -60 5 -60 3 0 9 -41
15 -108 3 -39 8 -80 10 -91 2 -12 7 -46 10 -77 3 -31 7 -65 9 -75 2 -11 7 -46
11 -79 4 -32 8 -66 10 -75 1 -8 6 -37 9 -63 4 -27 9 -56 11 -65 1 -10 6 -39
10 -67 4 -27 9 -59 11 -70 14 -83 13 -101 -5 -154 -22 -63 -50 -163 -56 -201
-2 -14 -11 -56 -19 -95 -17 -76 -23 -108 -31 -170 -3 -22 -8 -49 -10 -60 -1
-11 -6 -45 -10 -75 -8 -57 -13 -85 -15 -85 0 0 -3 -27 -6 -60 -3 -33 -7 -78
-9 -100 -24 -239 -42 -529 -49 -833 -2 -51 -6 -95 -10 -99 -4 -4 -74 -24 -156
-44 -149 -37 -194 -57 -235 -108 -32 -40 -53 -102 -51 -156 2 -52 24 -125 38
-125 4 0 8 -5 8 -11 0 -18 61 -63 109 -81 44 -16 111 -17 171 -3 48 12 55 13
55 15 0 1 11 3 25 5 14 1 33 6 42 10 18 7 16 11 52 -130 25 -96 98 -294 137
-367 7 -14 -3 -26 -54 -64 -163 -124 -339 -295 -366 -355 -23 -50 -23 -160 0
-199 33 -58 98 -114 149 -128 8 -2 38 -5 65 -6 75 -4 129 24 222 113 45 43
104 96 130 117 26 22 50 41 53 44 3 3 19 15 37 27 l32 23 23 -33 c79 -112 240
-276 403 -412 33 -28 62 -53 63 -57 2 -5 9 -8 15 -8 7 0 23 -10 37 -22 14 -13
45 -36 70 -53 25 -16 51 -36 59 -43 8 -8 24 -18 35 -23 12 -5 33 -17 48 -27
48 -31 120 -72 128 -72 5 0 10 -3 12 -8 4 -10 252 -131 358 -175 135 -55 438
-159 503 -171 7 -2 30 -8 52 -14 22 -6 51 -13 65 -16 14 -2 54 -11 89 -21 35
-9 76 -18 90 -20 14 -2 49 -9 76 -15 28 -5 66 -12 85 -15 19 -3 45 -7 58 -10
20 -5 82 -14 137 -20 11 -1 36 -5 55 -8 32 -6 75 -10 215 -23 28 -3 66 -7 85
-9 254 -26 997 -26 1220 0 19 2 67 7 105 10 123 11 230 23 266 31 13 3 41 7
61 9 21 2 50 6 65 9 15 3 44 8 63 11 19 3 43 8 53 11 10 3 35 7 55 10 20 2 75
13 122 24 47 11 96 23 110 26 14 3 43 10 65 16 22 5 47 11 55 13 8 2 29 8 45
15 17 6 30 10 30 9 0 -5 211 64 221 72 7 6 16 9 20 8 5 -1 18 1 29 6 11 4 54
21 95 37 41 16 100 40 130 55 30 14 60 26 65 27 19 4 302 151 325 170 8 6 31
20 50 31 90 50 318 220 424 316 67 61 207 204 233 237 10 13 36 43 58 67 l40
45 60 -45 c32 -25 104 -86 158 -137 129 -121 148 -131 242 -130 59 0 71 3 110
25 49 27 73 52 99 103 20 40 24 61 22 114 -2 38 -10 80 -21 100 -22 42 -162
182 -272 271 -43 35 -79 67 -81 71 -2 5 -8 8 -13 8 -6 0 -18 8 -28 17 -18 17
-18 21 20 108 22 50 43 99 48 110 16 36 49 139 60 185 29 120 44 148 66 130 5
-4 28 -11 50 -14 22 -4 57 -11 78 -17 84 -22 179 10 239 80 42 49 56 91 54
162 -4 125 -85 206 -243 240 -32 7 -60 13 -63 14 -3 1 -33 7 -67 15 -61 12
-63 14 -64 44 -5 246 -18 539 -24 576 -3 14 -7 71 -10 127 -3 56 -8 112 -11
125 -3 13 -6 41 -8 63 -2 22 -7 69 -11 105 -4 36 -9 79 -11 95 -1 17 -3 30 -4
30 -2 0 -7 31 -14 90 -3 28 -8 61 -11 75 -3 14 -10 45 -14 70 -5 25 -16 81
-26 125 -9 44 -19 87 -20 95 -2 8 -4 16 -5 18 -2 1 -4 7 -5 12 -1 6 -4 12 -5
15 -3 6 -3 6 -14 55 -5 19 -12 40 -16 45 -4 6 -13 31 -19 56 -12 41 -11 85 3
155 2 12 7 39 10 60 4 22 11 64 16 94 5 30 12 82 16 115 3 33 8 69 10 80 2 11
7 40 10 65 3 25 7 56 9 70 2 14 7 50 10 80 3 30 8 73 11 95 10 92 13 123 18
185 3 36 8 81 11 100 5 36 13 127 20 235 2 33 7 85 10 115 5 54 11 143 20 330
27 510 22 1223 -10 1455 -3 22 -8 65 -11 95 -2 30 -7 66 -9 80 -3 14 -8 41
-11 60 -3 19 -7 47 -10 62 -2 15 -8 38 -14 52 -5 15 -7 26 -5 26 2 0 0 12 -6
28 -6 15 -12 35 -14 45 -7 33 -56 124 -78 145 -44 41 -84 50 -212 47 -66 -2
-131 -6 -145 -9 -14 -3 -61 -12 -105 -20 -44 -8 -92 -19 -107 -25 -16 -6 -28
-9 -28 -6 0 2 -15 -1 -32 -6 -18 -6 -42 -12 -53 -14 -82 -18 -483 -158 -547
-191 -15 -8 -28 -12 -28 -10 0 3 -22 -6 -49 -19 -27 -14 -52 -25 -55 -25 -14
0 -362 -173 -368 -184 -4 -6 -8 -8 -8 -4 0 4 -22 -5 -48 -21 -27 -16 -59 -32
-70 -36 -12 -3 -22 -11 -22 -16 0 -5 -6 -9 -13 -9 -7 0 -23 -9 -35 -20 -12
-11 -24 -20 -28 -20 -15 0 -224 -137 -236 -154 -4 -6 -8 -8 -8 -4 0 4 -8 1
-17 -7 -10 -8 -63 -50 -119 -93 -109 -86 -191 -160 -263 -236 -25 -27 -54 -58
-63 -67 -46 -48 -147 -192 -181 -256 -36 -68 -46 -79 -72 -73 -5 1 -14 3 -20
4 -5 1 -16 5 -22 9 -7 5 -13 6 -13 4 0 -3 -32 1 -71 9 -39 7 -74 13 -77 12 -4
0 -9 1 -12 2 -3 1 -21 3 -40 4 -19 2 -55 6 -80 9 -46 7 -80 11 -205 22 -123
11 -145 14 -155 20 -6 3 -10 3 -10 -2 0 -4 -21 -8 -48 -9 -48 -1 -153 -10
-232 -19 -25 -3 -61 -8 -80 -10 -72 -8 -207 -26 -230 -32 -8 -2 -33 -5 -54 -8
-21 -2 -43 -8 -48 -13 -19 -19 -45 0 -71 51 -81 156 -253 362 -412 492 -27 22
-62 52 -79 66 -56 46 -196 149 -205 149 -4 0 -16 9 -26 20 -10 11 -24 20 -32
20 -7 0 -13 5 -13 10 0 6 -4 10 -10 10 -5 0 -42 20 -81 46 -125 80 -411 234
-434 234 -8 0 -15 3 -15 8 0 6 -55 35 -70 37 -3 0 -16 7 -29 14 -38 21 -276
119 -396 163 -244 90 -511 163 -710 194 -65 10 -254 11 -285 1z"/>
</g>
</svg>
