<svg xmlns="http://www.w3.org/2000/svg" viewBox="0 0 36 36">
  <path fill="#366472" d="M34.964 11.955L35 12s1-10 0-11c-.91-.91-6.771.66-7.822.951C24.752.717 21.735 0 18 0c-3.729 0-6.742.719-9.165 1.954C7.815 1.671 1.913.087 1 1 0 2 1 12 1 12l.047-.059C.308 14.494 0 17.251 0 20c0 5.506 3.376 9.818 7.577 12.572C7.658 26.155 5.32 19 1.404 19c-.464 0-.839.066-1.152.183.302-.757.96-1.183 2.189-1.183 4.245 0 6.638 8.411 6.102 15.174C11.688 35.01 15.171 36 18 36c2.83 0 6.314-.981 9.461-2.812-.546-6.79 1.848-15.188 6.1-15.188 1.233 0 1.892.426 2.192 1.183-.314-.117-.69-.183-1.157-.183-3.924 0-6.264 7.151-6.171 13.592C32.624 29.847 36 25.538 36 20c0-2.752-.306-5.502-1.036-8.045"/>
  <path fill="#162B2F" d="M18 21a4 4 0 0 0-4 4v6a4 4 0 0 0 8 0v-6a4 4 0 0 0-4-4"/>
  <path fill="#0A1316" d="M18 15c3 0 3 .5 3 1.5s-1.5 3-3 3-3-2-3-3 0-1.5 3-1.5"/>
  <path fill="#162B2F" d="M29.924 20.506l-5.021 1.004a.5.5 0 1 0 .195.98l4.197-.839c.196-.41.406-.792.629-1.145M33.561 18l.016.001 1.582-.527a.5.5 0 1 0-.317-.948l-9 3a.501.501 0 0 0 .317.95l5.431-1.811c.601-.424 1.26-.665 1.971-.665M11.098 21.51L6.07 20.504c.223.354.433.736.629 1.146l4.203.841a.5.5 0 0 0 .196-.981M10.158 19.525l-9-3a.5.5 0 1 0-.316.949l1.583.527c.005.001.009-.001.015-.001.708 0 1.363.24 1.963.661l5.439 1.813a.501.501 0 0 0 .316-.949"/>
  <path fill="#F5F8FA" d="M7.347 10.666c-.946 3.176.107 6.293 2.352 6.962 2.246.67 4.834-1.362 5.779-4.538.948-3.175-.105-6.293-2.349-6.962-2.246-.67-4.835 1.363-5.782 4.538M28.652 10.666c.946 3.176-.107 6.293-2.354 6.962-2.245.67-4.834-1.362-5.778-4.538-.946-3.175.106-6.293 2.351-6.962 2.246-.67 4.834 1.363 5.781 4.538"/>
  <path fill="#274756" d="M35.753 19.183c-.314-.117-.69-.183-1.157-.183-4.641 0-7.065 10.002-5.873 17h6.46c-1.906-7.045 1.656-14.089.57-16.817M1.404 19c-.464 0-.84.066-1.153.183.072-.179.167-.336.281-.477C-1.33 20.998 2.848 28.54.818 36h6.461c1.188-6.96-1.236-17-5.875-17"/>
</svg>
