<svg xmlns="http://www.w3.org/2000/svg" viewBox="0 0 310 56">
  <g fill="#000000">
    <path d="M.721 53.664l19.44-51.469h12.495l19.718 51.469H39.949L35.796 42.73H16.008l-3.56 10.934H.721zm32.528-19.582l-5.724-16.629c-.163-.492-.373-1.336-.628-2.531a89.873 89.873 0 0 1-.803-4.395 161.85 161.85 0 0 1-.873 4.482c-.279 1.324-.488 2.209-.628 2.654l-5.514 16.418h14.17zM94.122 53.664H81.523L68.086 29.617v24.047H57.163V2.195h15.635c6.212 0 10.866 1.213 13.96 3.639C89.852 8.26 91.4 11.911 91.4 16.785c0 3.539-1.059 6.563-3.176 9.07-2.118 2.508-4.852 3.973-8.202 4.395l14.1 23.414zM68.086 24.133h1.64c4.42 0 7.341-.486 8.76-1.459 1.419-.972 2.129-2.666 2.129-5.08 0-2.531-.763-4.33-2.286-5.396-1.524-1.066-4.392-1.6-8.603-1.6h-1.64v13.535zM137.212 53.664h-12.599l-13.437-24.047v24.047h-10.924V2.195h15.635c6.212 0 10.866 1.213 13.96 3.639 3.094 2.426 4.642 6.077 4.642 10.951 0 3.539-1.059 6.563-3.176 9.07-2.118 2.508-4.852 3.973-8.202 4.395l14.101 23.414zm-26.036-29.531h1.64c4.42 0 7.341-.486 8.76-1.459 1.419-.972 2.129-2.666 2.129-5.08 0-2.531-.763-4.33-2.286-5.396-1.524-1.066-4.392-1.6-8.603-1.6h-1.64v13.535zM139.735 53.664l19.439-51.469h12.495l19.718 51.469h-12.424L174.81 42.73h-19.788l-3.56 10.934h-11.727zm32.528-19.582l-5.724-16.629c-.163-.492-.373-1.336-.628-2.531a89.873 89.873 0 0 1-.803-4.395 161.85 161.85 0 0 1-.873 4.482c-.279 1.324-.488 2.209-.628 2.654l-5.514 16.418h14.17zM196.177 53.664V2.195h10.924v23.309l17.031-23.309h12.634l-18.288 23.449 18.951 28.02h-13.157l-17.171-26.93v26.93h-10.924z"/>
    <path d="M235.254 28.316c0-1.664.587-3.076 1.763-4.236 1.174-1.16 2.588-1.74 4.24-1.74 1.675 0 3.094.58 4.258 1.74 1.163 1.16 1.745 2.572 1.745 4.236 0 1.665-.582 3.088-1.745 4.271-1.164 1.184-2.583 1.775-4.258 1.775-1.652 0-3.066-.598-4.24-1.793-1.176-1.194-1.763-2.612-1.763-4.253zM256.074 53.664V2.195h10.924v51.469h-10.924zM274.902 47.125l6.073-6.926c.768 1.898 2.001 3.393 3.7 4.482 1.698 1.09 3.606 1.635 5.724 1.635 2.559 0 4.583-.609 6.072-1.828 1.489-1.218 2.234-2.859 2.234-4.922 0-2.438-2.478-4.863-7.434-7.277a118.687 118.687 0 0 1-3.804-1.898c-4.467-2.343-7.562-4.635-9.284-6.873-1.722-2.238-2.583-4.904-2.583-7.998 0-4.242 1.669-7.729 5.008-10.459 3.338-2.73 7.672-4.096 13-4.096 3.094 0 5.764.545 8.01 1.635 2.245 1.09 4.229 2.795 5.951 5.115l-6.457 6.223c-.768-1.5-1.786-2.619-3.054-3.357-1.269-.738-2.798-1.107-4.59-1.107-2.164 0-3.909.545-5.235 1.635s-1.989 2.502-1.989 4.236c0 2.719 2.629 5.203 7.887 7.453a90.28 90.28 0 0 1 2.408 1.055c4.328 1.992 7.533 4.242 9.615 6.75s3.124 5.367 3.124 8.578c0 4.829-1.635 8.678-4.903 11.549-3.27 2.871-7.661 4.307-13.175 4.307-3.909 0-7.259-.68-10.052-2.039-2.791-1.361-4.874-3.318-6.246-5.873z"/>
  </g>
</svg>
